<svg width="32" height="32" viewBox="0 0 32 32" fill="none" xmlns="http://www.w3.org/2000/svg">
<path d="M26 5H6C5.44772 5 5 5.44772 5 6V26C5 26.5523 5.44772 27 6 27H26C26.5523 27 27 26.5523 27 26V6C27 5.44772 26.5523 5 26 5Z" stroke="black" stroke-width="2" stroke-linecap="round" stroke-linejoin="round"/>
<path d="M12 14C13.1046 14 14 13.1046 14 12C14 10.8954 13.1046 10 12 10C10.8954 10 10 10.8954 10 12C10 13.1046 10.8954 14 12 14Z" stroke="black" stroke-width="2" stroke-linecap="round" stroke-linejoin="round"/>
<path d="M7.0863 27L20.7926 13.2925C20.8854 13.1995 20.9957 13.1258 21.1171 13.0754C21.2385 13.0251 21.3686 12.9992 21.5001 12.9992C21.6315 12.9992 21.7616 13.0251 21.883 13.0754C22.0044 13.1258 22.1147 13.1995 22.2076 13.2925L27.0001 18.0862" stroke="black" stroke-width="2" stroke-linecap="round" stroke-linejoin="round"/>
</svg>
