<svg width="32" height="32" viewBox="0 0 32 32" fill="none" xmlns="http://www.w3.org/2000/svg">
<path d="M28 14.625V6C28 5.44772 27.5116 5 26.9091 5H5.09091C4.48842 5 4 5.44772 4 6V26C4 26.5523 4.48842 27 5.09091 27H16.5" stroke="black" stroke-width="2" stroke-linecap="round" stroke-linejoin="round"/>
<path d="M28 14.625V6C28 5.44772 27.5116 5 26.9091 5H5.09091C4.48842 5 4 5.44772 4 6V26C4 26.5523 4.48842 27 5.09091 27H16.5" stroke="black" stroke-width="2" stroke-linecap="round" stroke-linejoin="round"/>
<path d="M10.5 14C11.8807 14 13 12.8807 13 11.5C13 10.1193 11.8807 9 10.5 9C9.11929 9 8 10.1193 8 11.5C8 12.8807 9.11929 14 10.5 14Z" stroke="black" stroke-width="2" stroke-linecap="round" stroke-linejoin="round"/>
<path d="M4.5 26.5L15.7696 15.2587C15.8494 15.1767 15.9441 15.1116 16.0483 15.0672C16.1525 15.0228 16.2643 15 16.3771 15C16.49 15 16.6017 15.0228 16.706 15.0672C16.8102 15.1116 16.9049 15.1767 16.9847 15.2587L19.5 17.5" stroke="black" stroke-width="2" stroke-linecap="round" stroke-linejoin="round"/>
<path d="M24 17V29" stroke="black" stroke-width="2" stroke-linecap="round" stroke-linejoin="round"/>
<path d="M18 23H30" stroke="black" stroke-width="2" stroke-linecap="round" stroke-linejoin="round"/>
</svg>
