<svg width="32" height="32" viewBox="0 0 32 32" fill="none" xmlns="http://www.w3.org/2000/svg">
<g clip-path="url(#clip0_2_295)">
<path d="M17.1794 15.5813L23.9349 6.2517C24.1536 5.9389 24.4333 5.67133 24.758 5.46457C25.0825 5.25781 25.4454 5.11599 25.8255 5.04738C26.2055 4.97877 26.5952 4.98473 26.9716 5.06492C27.3481 5.14511 27.704 5.29792 28.0185 5.51446C28.333 5.731 28.5998 6.00693 28.8034 6.32619C29.007 6.64545 29.1433 7.00165 29.2045 7.37406C29.2656 7.74646 29.2504 8.12762 29.1595 8.49533C29.0687 8.86304 28.9041 9.20995 28.6754 9.51587L21.9334 18.8635M15.6921 18.9173C14.0212 19.2055 12.9015 20.7662 13.1848 22.4088C13.4105 23.7171 10.9263 24.3382 11.5144 24.7431C12.7882 25.6376 14.3637 26.2977 15.8837 26.0354C18.0982 25.6533 19.6046 23.5701 19.2245 21.3668C19.1587 20.9778 19.0152 20.6058 18.8021 20.2721C18.589 19.9385 18.3104 19.6497 17.9825 19.4222C17.6545 19.1948 17.2834 19.0331 16.8904 18.9465C16.4974 18.8598 16.0903 18.8499 15.6921 18.9173Z" stroke="black" stroke-width="2" stroke-linecap="round" stroke-linejoin="round"/>
<path d="M6.96649 25.3019C0.869287 20.1427 2.96906 14.7596 5.55942 12.1694C8.84255 8.88651 14.9398 9.82443 17.7538 13.5765" stroke="black" stroke-width="2" stroke-linecap="round" stroke-dasharray="3.75 3.75"/>
</g>
<defs>
<clipPath id="clip0_2_295">
<rect width="32" height="32" fill="white"/>
</clipPath>
</defs>
</svg>
