<svg width="33" height="32" viewBox="0 0 33 32" fill="none" xmlns="http://www.w3.org/2000/svg">
<path d="M17.27 24L16.0275 25.2425C14.8992 26.3526 13.3779 26.9719 11.7951 26.9654C10.2123 26.959 8.69611 26.3273 7.57688 25.2081C6.45765 24.0889 5.82601 22.5727 5.81957 20.9899C5.81312 19.4071 6.43239 17.8858 7.54247 16.7575L10.5562 13.75C11.6372 12.6668 13.0913 12.0376 14.621 11.9911C16.1506 11.9446 17.6402 12.4844 18.785 13.5" stroke="black" stroke-width="2" stroke-linecap="round" stroke-linejoin="round"/>
<path d="M16.3 8L17.5425 6.7575C18.6708 5.64741 20.192 5.02815 21.7749 5.0346C23.3577 5.04104 24.8738 5.67267 25.9931 6.79191C27.1123 7.91114 27.7439 9.42729 27.7504 11.0101C27.7568 12.5929 27.1376 14.1142 26.0275 15.2425L23.0137 18.2562C21.9319 19.3386 20.4774 19.9667 18.9477 20.012C17.4181 20.0573 15.929 19.5164 14.785 18.5" stroke="black" stroke-width="2" stroke-linecap="round" stroke-linejoin="round"/>
</svg>
