<svg width="32" height="32" viewBox="0 0 32 32" fill="none" xmlns="http://www.w3.org/2000/svg">
<path d="M16 21C18.7614 21 21 18.7614 21 16C21 13.2386 18.7614 11 16 11C13.2386 11 11 13.2386 11 16C11 18.7614 13.2386 21 16 21Z" stroke="black" stroke-width="2" stroke-linecap="round" stroke-linejoin="round"/>
<path d="M5.17879 22.2612C4.62626 21.3095 4.20295 20.2885 3.92004 19.225L6.01754 16.6C5.99379 16.1987 5.99379 15.7963 6.01754 15.395L3.92129 12.77C4.20372 11.7063 4.62616 10.6849 5.17754 9.73248L8.51629 9.35748C8.78291 9.0571 9.06716 8.77285 9.36754 8.50623L9.74254 5.16873C10.6936 4.61998 11.7134 4.20005 12.775 3.91998L15.4 6.01748C15.8014 5.99373 16.2037 5.99373 16.605 6.01748L19.23 3.92123C20.2937 4.20366 21.3151 4.6261 22.2675 5.17748L22.6425 8.51623C22.9429 8.78285 23.2272 9.0671 23.4938 9.36748L26.8313 9.74248C27.3838 10.6942 27.8071 11.7152 28.09 12.7787L25.9925 15.4037C26.0163 15.805 26.0163 16.2074 25.9925 16.6087L28.0888 19.2337C27.8083 20.2971 27.388 21.3185 26.8388 22.2712L23.5 22.6462C23.2334 22.9466 22.9492 23.2309 22.6488 23.4975L22.2738 26.835C21.3221 27.3875 20.301 27.8108 19.2375 28.0937L16.6125 25.9962C16.2112 26.02 15.8089 26.02 15.4075 25.9962L12.7825 28.0925C11.7192 27.812 10.6978 27.3917 9.74504 26.8425L9.37004 23.5037C9.06966 23.2371 8.78541 22.9529 8.51879 22.6525L5.17879 22.2612Z" stroke="black" stroke-width="2" stroke-linecap="round" stroke-linejoin="round"/>
</svg>
